# xmcd
#
# Track frame offsets:
#	150
#	16734
#	36857
#	59099
#	80059
#	98399
#	123767
#	140146
#	161896
#	183361
#	203193
#	225049
#
# Disc length: 3186 seconds
#
# Revision: 1
# Processed by: cddbd v1.5.2PL0 Copyright (c) Steve Scherf et al.
# Submitted via: audiograbber 1.83.01
#
DISCID=970c700c
DTITLE=Hamilton Loomis - Give It Back
DYEAR=2013
DGENRE=Blues
TTITLE0=Stuck In A Rut
TTITLE1=Eternally
TTITLE2=She's Had Enough
TTITLE3=Give It Back
TTITLE4=Partner In Crime
TTITLE5=A Woman Like You
TTITLE6=Everything I Had
TTITLE7=High
TTITLE8=Fool Sometimes
TTITLE9=One More Take
TTITLE10=Castle
TTITLE11=Peer Pressure
EXTD=Texas Blues - Texas Funk
EXTT0=
EXTT1=
EXTT2=
EXTT3=
EXTT4=
EXTT5=
EXTT6=
EXTT7=
EXTT8=
EXTT9=
EXTT10=
EXTT11=
PLAYORDER=
